<svg width="100" height="100" viewBox="0 0 100 100" fill="none" xmlns="http://www.w3.org/2000/svg">
<path d="M100 50C100 59.8891 97.0676 69.556 91.5735 77.7785C86.0794 86.0009 78.2705 92.4096 69.1342 96.194C59.9979 99.9783 49.9445 100.969 40.2455 99.0392C30.5464 97.11 21.6373 92.3479 14.6447 85.3553C7.65206 78.3627 2.89002 69.4536 0.960758 59.7545C-0.968502 50.0555 0.0216644 40.0021 3.80605 30.8658C7.59043 21.7295 13.999 13.9206 22.2215 8.42652C30.444 2.93245 40.1109 9.54135e-07 50 9.54135e-07C56.5665 -0.00128193 63.0688 1.29113 69.1357 3.80341C75.2026 6.31569 80.715 9.99861 85.3582 14.6418C90.0014 19.285 93.6843 24.7974 96.1966 30.8643C98.7089 36.9312 100.001 43.4335 100 50V50Z" fill="#232A3D"/>
<path d="M50 77.793C50.6613 77.793 51.2958 77.5309 51.7643 77.0642C52.2329 76.5975 52.4974 75.9641 52.5 75.3027V71.3379C52.5 70.6774 52.2376 70.044 51.7706 69.577C51.3036 69.11 50.6702 68.8477 50.0098 68.8477C49.3493 68.8477 48.7159 69.11 48.2489 69.577C47.7819 70.044 47.5195 70.6774 47.5195 71.3379V75.3027C47.5221 75.9607 47.7839 76.5912 48.2483 77.0573C48.7126 77.5235 49.342 77.7878 50 77.793V77.793Z" fill="#61D199"/>
<path d="M52.5 82.3633C52.5 82.8597 52.3528 83.3449 52.077 83.7576C51.8013 84.1704 51.4093 84.492 50.9507 84.682C50.4921 84.872 49.9875 84.9217 49.5006 84.8248C49.0138 84.728 48.5666 84.489 48.2156 84.138C47.8646 83.787 47.6255 83.3398 47.5287 82.8529C47.4319 82.3661 47.4816 81.8614 47.6715 81.4028C47.8615 80.9442 48.1832 80.5523 48.5959 80.2765C49.0086 80.0007 49.4939 79.8535 49.9902 79.8535C50.6559 79.8535 51.2942 80.1179 51.7649 80.5886C52.2356 81.0593 52.5 81.6976 52.5 82.3633Z" fill="#61D199"/>
<path d="M59.707 73.2422C59.0466 73.2422 58.4132 73.5046 57.9462 73.9716C57.4792 74.4386 57.2168 75.072 57.2168 75.7324V82.5684C57.2168 83.2288 57.4792 83.8622 57.9462 84.3292C58.4132 84.7962 59.0466 85.0586 59.707 85.0586C60.3675 85.0586 61.0009 84.7962 61.4679 84.3292C61.9349 83.8622 62.1973 83.2288 62.1973 82.5684V75.7324C62.1973 75.072 61.9349 74.4386 61.4679 73.9716C61.0009 73.5046 60.3675 73.2422 59.707 73.2422V73.2422Z" fill="#61D199"/>
<path d="M40.1953 73.3594C39.534 73.3594 38.8996 73.6214 38.431 74.0881C37.9624 74.5549 37.6979 75.1883 37.6953 75.8496V82.6855C37.6953 83.346 37.9577 83.9794 38.4247 84.4464C38.8917 84.9134 39.5251 85.1758 40.1855 85.1758C40.846 85.1758 41.4794 84.9134 41.9464 84.4464C42.4134 83.9794 42.6758 83.346 42.6758 82.6855V75.8496C42.6758 75.1908 42.4148 74.5589 41.9499 74.0922C41.485 73.6255 40.8541 73.362 40.1953 73.3594V73.3594Z" fill="#61D199"/>
<path d="M65.0195 45.7324C65.3043 44.0547 65.448 42.356 65.4492 40.6543C65.5241 35.5325 64.2189 30.485 61.6707 26.0416C59.1225 21.5981 55.4252 17.9224 50.9668 15.4004L49.9902 14.873L49.0137 15.4004C44.5632 17.9283 40.8743 21.6063 38.3333 26.0492C35.7923 30.4922 34.4926 35.5366 34.5703 40.6543C34.5747 42.3563 34.7217 44.0549 35.0098 45.7324C32.5552 49.1632 31.3527 53.3326 31.6034 57.5435C31.854 61.7545 33.5425 65.7518 36.3867 68.8672L37.666 70.2539L39.1309 69.0625C41.8363 66.839 45.1607 65.5024 48.6523 65.2344C49.5723 65.166 50.4961 65.166 51.416 65.2344C54.9076 65.5024 58.2321 66.839 60.9375 69.0625L62.4023 70.2539L63.6816 68.8672C66.5183 65.7463 68.1987 61.7468 68.4421 57.5364C68.6856 53.326 67.4775 49.1595 65.0195 45.7324V45.7324ZM50.0098 19.4434C53.5797 21.7057 56.5087 24.847 58.5162 28.5661C60.5237 32.2853 61.5424 36.4577 61.4746 40.6836C61.475 43.333 61.0733 45.9672 60.2832 48.4961V48.584C60.2246 48.7793 60.1562 48.9648 60.0976 49.1406L60.0195 49.3555L59.8242 49.7266C58.4683 53.4189 56.2404 56.7289 53.3301 59.375L52.9687 59.6973L52.8418 59.8144L52.5 60.1074L52.3437 60.2441L52.0117 60.498L51.8359 60.6348L51.5039 60.8789L51.3476 60.9863L51.0351 61.2207H49.082L48.7793 61.0058L48.6133 60.8887L48.2812 60.6348L48.0566 60.5469L47.7344 60.293L47.5391 60.1562L47.1973 59.8828L47.0703 59.7754L46.7187 59.4238C43.8097 56.7786 41.579 53.4728 40.2148 49.7851L40.0488 49.3359L39.9609 49.1211C39.8926 48.9355 39.834 48.7402 39.7754 48.5547V48.4766C38.9863 45.9474 38.5846 43.3134 38.584 40.6641C38.5107 36.4443 39.523 32.2766 41.5238 28.5606C43.5246 24.8447 46.4467 21.7052 50.0098 19.4434V19.4434ZM38.2129 64.7851C36.842 62.8432 35.9684 60.5946 35.6688 58.2365C35.3691 55.8784 35.6525 53.4828 36.4941 51.2598C38.0408 55.3724 40.5213 59.0698 43.7402 62.0605C41.7736 62.6915 39.9111 63.6097 38.2129 64.7851ZM61.8066 64.7851C60.0877 63.6235 58.2049 62.7249 56.2207 62.1191V62.1191C58.5029 60.0073 60.4201 57.5325 61.8945 54.7949C62.5028 53.6632 63.0346 52.4919 63.4863 51.2891C64.331 53.5045 64.6195 55.8933 64.3267 58.2462C64.0338 60.5991 63.1686 62.8443 61.8066 64.7851V64.7851Z" fill="white"/>
<path d="M50.0098 41.9043H50.1758C51.8629 41.8991 53.4794 41.2267 54.6724 40.0337C55.8653 38.8407 56.5378 37.2242 56.543 35.5371V32.6855C56.5275 31.0061 55.8502 29.4006 54.6581 28.2176C53.4659 27.0346 51.8553 26.3697 50.1758 26.3672H50.0098C48.3219 26.3698 46.7039 27.0414 45.5103 28.2349C44.3168 29.4285 43.6452 31.0465 43.6426 32.7344V35.5859C43.6452 37.2738 44.3168 38.8918 45.5103 40.0854C46.7039 41.2789 48.3219 41.9505 50.0098 41.9531V41.9043ZM47.627 32.6855C47.6244 32.3705 47.684 32.0581 47.8025 31.7662C47.921 31.4743 48.0959 31.2087 48.3173 30.9846C48.5387 30.7604 48.8022 30.5823 49.0926 30.4602C49.3831 30.3382 49.6947 30.2747 50.0098 30.2734H50.1758C50.8086 30.276 51.4147 30.5292 51.8613 30.9777C52.3079 31.4261 52.5586 32.0332 52.5586 32.666V35.5176C52.556 36.1497 52.3045 36.7553 51.8585 37.2031C51.4124 37.651 50.8078 37.905 50.1758 37.9102H50.0098C49.3769 37.9076 48.7709 37.6544 48.3243 37.2059C47.8777 36.7575 47.6269 36.1504 47.627 35.5176V32.6855Z" fill="white"/>
</svg>
