<svg xmlns="http://www.w3.org/2000/svg" viewBox="0 0 480.33 102.39"><defs><style>.cls-1{fill:#232a3d;}.cls-2{fill:#61d199;}.cls-3{fill:#fff;}</style></defs><title>Asset 1</title><g id="Layer_2" data-name="Layer 2"><g id="Layer_1-2" data-name="Layer 1"><path class="cls-1" d="M102.39,51.2A51.2,51.2,0,1,1,51.19,0a51.19,51.19,0,0,1,51.2,51.2Z"/><path class="cls-1" d="M144.06,33.57c11,0,17.25,8.25,17.25,17.55s-6.15,17.7-17.25,17.7H131.31V33.57ZM144,63.48c7.31,0,11.5-5.65,11.5-12.31S151.25,38.86,144,38.86h-6.87V63.47H144Z"/><path class="cls-1" d="M179.75,61.66,176.32,69h-6.14v-.75l16.32-34.8h2.73l16.23,34.8V69h-6.1l-3.48-7.31Zm1.92-4.95H194l-6.15-14.12Z"/><path class="cls-1" d="M211.45,38.74v-5.2H237.7v5.2H227.43V68.85h-5.75V38.74Z"/><path class="cls-1" d="M253.21,61.66,249.78,69h-6.15v-.75L260,33.42h2.73l16.23,34.8V69h-6.1l-3.48-7.31Zm1.92-4.95H267.5l-6.15-14.12Z"/><path class="cls-1" d="M323.75,69.2h-5.34l-2.06-3.15a18,18,0,0,1-10.74,3.28c-9.68,0-17.75-7.11-17.75-18.16,0-10.84,7.36-18.05,18-18.05,9.53,0,17.95,6.56,17.95,18.05a17.85,17.85,0,0,1-3.63,11.45l3.57,5.68Zm-17.9-5.34c6.61,0,12-4.19,12-12.72,0-8.25-5.44-12.55-12.1-12.55s-12,4.5-12,12.55c0,8.22,5.45,12.72,12.06,12.72Z"/><path class="cls-1" d="M337.73,56.77V33.32h5.85v23.3c0,4.64,3.48,7.21,8,7.21s7.86-2.57,7.86-7.21V33.32h5.8V56.77c0,7.87-6.15,12.3-13.66,12.3s-13.82-4.43-13.82-12.3Z"/><path class="cls-1" d="M402.69,38.68H387.11v9.37h14.73v5.2H387.11V63.5H403v5.35H381.2V33.54h21.49Z"/><path class="cls-1" d="M421.2,58.61c.25,4,4.59,5.44,8.42,5.44s8.17-.91,8.17-5.3c0-4.64-4.79-5.09-8.88-5.49-6.46-.56-12.86-2.63-12.86-9.69,0-7.25,6.4-10.5,13.27-10.5,6.7,0,13.06,3,13.21,10.24H437c-.25-3.75-4.23-5-7.71-5-3.23,0-7.42,1.11-7.42,5.09s4,4.5,8.07,5c7.16.81,13.72,2.25,13.72,10.34,0,7.77-7.32,10.5-13.93,10.5-6.9.15-14.12-3.27-14.25-10.69h5.72Z"/><path class="cls-1" d="M454.08,38.74v-5.2h26.25v5.2H470.07V68.85h-5.75V38.74Z"/><path class="cls-2" d="M51.19,79.66a2.56,2.56,0,0,0,2.56-2.55V73.05a2.55,2.55,0,0,0-5.1,0v4.06a2.56,2.56,0,0,0,2.54,2.55Z"/><path class="cls-2" d="M53.75,84.34a2.57,2.57,0,1,1-2.57-2.57,2.57,2.57,0,0,1,2.57,2.57Z"/><path class="cls-2" d="M61.13,75a2.55,2.55,0,0,0-2.55,2.55v7a2.55,2.55,0,1,0,5.1,0v-7A2.55,2.55,0,0,0,61.13,75Z"/><path class="cls-2" d="M41.15,75.12a2.56,2.56,0,0,0-2.56,2.55v7a2.55,2.55,0,0,0,5.1,0v-7a2.55,2.55,0,0,0-2.54-2.55Z"/><path class="cls-3" d="M66.57,46.83a31.2,31.2,0,0,0,.44-5.2A29.22,29.22,0,0,0,52.18,15.77l-1-.54-1,.54A29.23,29.23,0,0,0,35.39,41.63a31.21,31.21,0,0,0,.45,5.2,18.86,18.86,0,0,0,1.41,23.69l1.31,1.42,1.5-1.22a17.46,17.46,0,0,1,9.75-3.92,19.1,19.1,0,0,1,2.83,0,17.46,17.46,0,0,1,9.75,3.92l1.5,1.22,1.31-1.42a18.87,18.87,0,0,0,1.37-23.69ZM51.2,19.91A25.27,25.27,0,0,1,62.94,41.66a26.81,26.81,0,0,1-1.22,8v.09c-.06.2-.13.39-.19.57l-.08.22-.2.38A25,25,0,0,1,54.6,60.8l-.37.33-.13.12-.35.3-.16.14-.34.26-.18.14-.34.25-.16.11-.32.24h-2l-.31-.22-.17-.12-.34-.26L49.2,62l-.33-.26-.2-.14-.35-.28-.13-.11-.36-.36a25.12,25.12,0,0,1-6.66-9.87L41,50.52l-.09-.22c-.07-.19-.13-.39-.19-.58v-.08a26.88,26.88,0,0,1-1.22-8A25.22,25.22,0,0,1,51.2,19.91ZM39.12,66.34a14.88,14.88,0,0,1-1.76-13.85,29.06,29.06,0,0,0,7.42,11.06,21.47,21.47,0,0,0-5.66,2.79Zm24.16,0a21.35,21.35,0,0,0-5.72-2.73h0a28.87,28.87,0,0,0,5.81-7.5A29.46,29.46,0,0,0,65,52.52a14.85,14.85,0,0,1-1.72,13.82Z"/><path class="cls-3" d="M51.2,42.91h.17a6.54,6.54,0,0,0,6.52-6.52V33.47A6.53,6.53,0,0,0,51.37,27H51.2a6.53,6.53,0,0,0-6.52,6.52v2.92a6.53,6.53,0,0,0,6.52,6.52Zm-2.44-9.44A2.45,2.45,0,0,1,51.2,31h.17a2.45,2.45,0,0,1,2.44,2.45v2.92a2.46,2.46,0,0,1-2.44,2.45H51.2a2.45,2.45,0,0,1-2.44-2.45Z"/></g></g></svg>