<?xml version="1.0" encoding="utf-8"?>
<!-- Generator: Adobe Illustrator 15.0.0, SVG Export Plug-In . SVG Version: 6.00 Build 0)  -->
<!DOCTYPE svg PUBLIC "-//W3C//DTD SVG 1.1//EN" "http://www.w3.org/Graphics/SVG/1.1/DTD/svg11.dtd">
<svg version="1.1" id="Layer_1" xmlns="http://www.w3.org/2000/svg" xmlns:xlink="http://www.w3.org/1999/xlink" x="0px" y="0px"
	 width="841.89px" height="595.28px" viewBox="0 0 841.89 595.28" enable-background="new 0 0 841.89 595.28" xml:space="preserve">
<path fill-rule="evenodd" clip-rule="evenodd" fill="#FF0000" d="M8,308.113c0.604-2.87,1.827-5.391,4.053-7.379
	c2.229-1.992,4.83-3.327,7.573-4.443c37.987-15.444,76.039-30.734,113.922-46.429c14.48-6,28.574-12.936,42.841-19.45
	c0.215-0.097,0.397-0.268,0.594-0.404c0.164,0,0.328,0,0.491,0c-0.011,0.391,0.089,0.827-0.049,1.165
	c-1.942,4.761-3.713,9.607-5.94,14.233c-2.284,4.746-6.147,8.061-11.11,9.869c-14.736,5.371-29.482,10.716-44.266,15.955
	c-31.069,11.013-62.167,21.945-93.243,32.939c-1.375,0.485-2.748,1.103-3.953,1.911c-2.996,2.004-3.65,5.198-1.698,8.221
	c0.722,1.117,1.677,2.116,2.655,3.031c9.764,9.149,19.555,18.271,29.342,27.396c0.263,0.245,0.57,0.442,1.117,0.86
	c-0.567,0.073-0.747,0.115-0.927,0.115c-4.174,0.006-8.348-0.013-12.522,0.02c-0.722,0.007-1.087-0.205-1.328-0.908
	c-0.745-2.167-2.069-3.963-3.687-5.576c-5.392-5.371-10.704-10.825-16.158-16.134c-3.53-3.436-6.807-6.959-7.708-12.044
	C8,310.078,8,309.097,8,308.113z"/>
<path fill-rule="evenodd" clip-rule="evenodd" fill="#FF0000" d="M377.571,345.772c-8.805-1.253-17.715-2.026-26.375-3.936
	c-5.296-1.169-10.571-3.484-15.227-6.316c-22.333-13.588-22.167-45.452,0.101-59.132c8.442-5.188,17.793-7.658,27.499-8.611
	c17.101-1.682,34.15-1.711,50.64,4.142c20.599,7.311,30.512,25.722,24.201,45.208c-4.673,14.432-16.098,21.389-29.847,24.705
	c-8.605,2.075-17.567,2.676-26.369,3.94C380.654,345.772,379.112,345.772,377.571,345.772z M379.953,280.471
	c-2.346,0.164-5.127,0.209-7.865,0.572c-9.905,1.317-16.185,6.488-17.798,15.979c-1.883,11.068-2.768,22.31,7.728,30.32
	c1.773,1.354,4.077,2.496,6.25,2.748c5.756,0.669,11.621,1.424,17.36,1.011c12.618-0.91,19.008-7.188,20.397-19.625
	c0.471-4.222,0.291-8.646-0.404-12.843c-1.818-10.99-8.171-16.618-19.26-17.703C384.372,280.734,382.373,280.641,379.953,280.471z"
	/>
<path fill-rule="evenodd" clip-rule="evenodd" fill="#FF0000" d="M834.438,342.998c-21.085,0-42.17,0-63.668,0
	c0-3.387,0-6.369,0-9.751c2.259-0.291,4.66-0.56,7.049-0.917c2.606-0.391,6.307-0.873,5.493-4.061
	c-0.756-2.959-3.704-7.504-5.87-7.61c-13.989-0.69-28.046-0.696-42.034-0.001c-2.193,0.109-5.116,4.65-5.965,7.635
	c-0.938,3.305,2.729,3.752,5.334,4.135c2.104,0.309,4.224,0.505,6.551,0.774c0,3.194,0,6.198,0,9.417c-15.589,0-30.907,0-46.448,0
	c0-3.259,0-6.253,0-9c0.396-0.345,0.514-0.536,0.618-0.529c9.719,0.711,14.823-4.826,19.129-12.783
	c5.78-10.682,12.602-20.8,18.937-31.185c3.721-6.099,2.427-8.444-4.825-9.071c-3.047-0.265-6.081-0.688-9.335-1.063
	c0-3.258,0-6.254,0-9.773c4.221,0,8.184,0,12.145,0c13.562,0,27.127,0.196,40.682-0.099c5.249-0.113,8.625,1.739,11.421,6.097
	c10.146,15.811,21.019,31.18,30.627,47.306c4.935,8.278,11.336,10.989,20.161,10.306
	C834.438,336.216,834.438,339.606,834.438,342.998z M741.741,307.031c9.97,0,19.062,0,28.853,0
	c-5.091-7.777-9.767-14.923-14.879-22.731C750.881,292.162,746.488,299.309,741.741,307.031z"/>
<path fill-rule="evenodd" clip-rule="evenodd" fill="#FF0000" d="M55.41,308.488c-5.779,1.514-11.466,3.006-17.155,4.493
	c-4.584,1.197-9.174,2.376-13.752,3.6c-0.751,0.2-1.317,0.153-1.869-0.443c-0.638-0.689-1.394-1.27-2.036-1.954
	c-1.882-2.008-1.533-4.646,0.843-6.001c0.949-0.541,2-0.931,3.043-1.273c41.053-13.508,82.118-26.979,123.16-40.521
	c5.504-1.817,10.9-3.965,16.346-5.958c0.396-0.145,0.796-0.273,1.239-0.426c0.069,0.291,0.15,0.425,0.114,0.509
	c-2.231,5.162-4.91,10.075-8.42,14.483c-2.576,3.232-5.959,5.288-9.958,6.361c-22.488,6.035-44.973,12.088-67.459,18.131
	c-7.692,2.066-15.388,4.122-23.081,6.19C54.77,306.122,54.468,306.879,55.41,308.488z"/>
<path fill-rule="evenodd" clip-rule="evenodd" fill="#FF0000" d="M151.237,286.484c-0.155,0.317-0.271,0.661-0.471,0.947
	c-2.442,3.477-4.799,7.02-7.375,10.396c-2.699,3.539-6.563,5.042-10.845,5.856c-20.069,3.821-40.123,7.728-60.182,11.604
	c-0.16,0.032-0.316,0.085-0.476,0.12c-1.654,0.372-1.949,1.199-0.823,2.754c-2.08,0.409-4.088,0.813-6.099,1.197
	c-10.274,1.963-20.552,3.909-30.822,5.892c-0.957,0.185-1.655,0.072-2.397-0.659c-2.037-2.004-4.175-3.904-6.472-6.028
	c42.049-10.834,83.892-21.614,125.734-32.395C151.085,286.273,151.161,286.379,151.237,286.484z"/>
<path fill-rule="evenodd" clip-rule="evenodd" fill="#FF0000" d="M89.031,329.363c-3.499,0.442-6.975,0.884-10.451,1.324
	c-8.153,1.033-16.307,2.064-24.461,3.099c-3.367,0.427-6.732,0.871-10.102,1.264c-0.397,0.047-0.944-0.053-1.224-0.307
	c-2.645-2.383-5.248-4.813-7.858-7.233c-0.079-0.074-0.106-0.201-0.203-0.391c33.533-6.289,67.007-12.567,100.785-18.901
	c-0.329,0.553-0.447,0.851-0.647,1.073c-2.623,2.922-5.164,5.926-7.916,8.722c-3.215,3.266-7.381,4.474-11.825,5.079
	c-8.222,1.12-16.428,2.371-24.637,3.588C88.557,326.968,88.283,327.497,89.031,329.363z"/>
<path fill-rule="evenodd" clip-rule="evenodd" fill="#FF0000" d="M115.604,345.709c-0.744,0-1.15,0-1.558,0
	c-19.387,0-38.775-0.007-58.163,0.016c-0.922,0.002-1.603-0.239-2.277-0.881c-2.688-2.563-5.43-5.069-8.364-7.792
	c1.729-0.22,3.201-0.42,4.675-0.591c8.768-1.018,17.537-2.024,26.305-3.043c5.235-0.608,10.468-1.244,15.707-1.832
	c0.489-0.056,1.095-0.001,1.497,0.247c7.203,4.437,14.384,8.909,21.567,13.377C115.122,345.289,115.229,345.399,115.604,345.709z"/>
<path fill-rule="evenodd" clip-rule="evenodd" fill="#FF0000" d="M182.472,278.982c0-3.393,0-6.271,0-9.458
	c19.401,0,38.576,0,58.122,0c0,3.094,0,6.068,0,9.429c-2.769,0.361-5.471,0.825-8.192,1.046c-3.875,0.313-5.962,2.344-6.085,6.171
	c-0.128,3.972-0.029,7.951-0.029,12.234c15.36,0,30.352,0,45.817,0c0-4.274,0.154-8.396-0.046-12.499
	c-0.175-3.572-2.256-5.549-5.9-5.878c-2.75-0.249-5.486-0.653-8.488-1.021c0-3.152,0-6.162,0-9.483c19.401,0,38.722,0,58.333,0
	c0,3.138,0,6.133,0,9.447c-2.68,0.349-5.239,0.843-7.817,0.982c-4.516,0.241-6.715,2.4-6.694,6.993
	c0.058,12.791,0.042,25.582,0.011,38.372c-0.01,4.332,2.033,6.519,6.383,6.786c2.604,0.16,5.187,0.656,8.087,1.044
	c0,3.032,0,6.036,0,9.392c-19.302,0-38.621,0-58.266,0c0-2.966,0-5.962,0-9.396c2.75-0.365,5.593-0.858,8.457-1.094
	c3.959-0.327,5.809-2.581,5.941-6.315c0.137-3.841,0.03-7.69,0.03-11.964c-15.185,0-30.181,0-45.531,0
	c0,4.597-0.41,9.354,0.225,13.968c0.219,1.595,2.829,3.438,4.718,4.086c2.7,0.927,5.742,0.861,9.019,1.267c0,3.06,0,6.053,0,9.422
	c-19.226,0-38.518,0-58.047,0c0-3.146,0-6.141,0-9.354c2.954-0.396,5.665-0.88,8.397-1.095c3.687-0.291,5.857-2.24,5.893-5.822
	c0.137-13.4,0.144-26.805,0.029-40.205c-0.033-3.82-2.348-5.787-6.21-6.051C188.035,279.809,185.461,279.361,182.472,278.982z"/>
<path fill-rule="evenodd" clip-rule="evenodd" fill="#FF0000" d="M490.243,333.148c0,3.29,0,6.284,0,9.504
	c-15.493,0-30.707,0-46.318,0c0-3.087,0-6.191,0-9.51c2.972-0.384,5.849-0.805,8.735-1.116c3.673-0.396,5.581-2.415,5.59-6.073
	c0.034-13.254,0.03-26.508,0.006-39.763c-0.008-3.946-2.189-5.833-6.011-6.183c-2.748-0.25-5.481-0.667-8.453-1.04
	c0-3.198,0-6.198,0-9.753c2.049,0,3.848,0,5.646,0c14.489,0.001,28.978,0.1,43.465-0.058c4.42-0.048,7.513,1.477,10.171,5.042
	c11.237,15.069,22.671,29.991,34.037,44.963c0.914,1.204,1.866,2.377,3.427,4.359c0.258-1.951,0.516-3.02,0.52-4.089
	c0.031-10.019,0.047-20.037,0.009-30.056c-0.028-7.545-1.081-8.654-8.583-9.548c-1.831-0.218-3.647-0.559-5.831-0.898
	c0-3.007,0-6.007,0-9.362c15.32,0,30.632,0,46.287,0c0,3.038,0,6.033,0,9.385c-2.464,0.338-4.866,0.729-7.283,0.989
	c-5.824,0.628-7.175,1.919-7.207,7.905c-0.083,16.338-0.035,32.677-0.039,49.014c-0.001,1.82,0,3.642,0,5.874
	c-13.058,0-25.64,0.231-38.201-0.219c-2.2-0.078-4.777-2.645-6.364-4.695c-11.226-14.497-22.237-29.16-33.318-43.769
	c-1.191-1.572-2.4-3.135-4.258-5.555c-0.261,2.018-0.516,3.078-0.52,4.14c-0.031,9.71-0.024,19.421-0.017,29.13
	c0.008,8.767,0.542,9.389,8.988,10.598C486.396,332.604,488.074,332.84,490.243,333.148z"/>
<path fill-rule="evenodd" clip-rule="evenodd" fill="#FF0000" d="M578.407,342.615c0-3.294,0-6.184,0-9.43
	c2.804-0.388,5.494-0.933,8.206-1.093c4.16-0.244,6.296-2.481,6.33-6.434c0.11-13.238,0.093-26.479,0.013-39.719
	c-0.02-3.569-1.867-5.701-5.644-5.985c-2.577-0.193-5.136-0.634-7.892-0.988c0-3.257,0-6.25,0-9.504
	c1.594-0.092,2.941-0.236,4.288-0.237c22.941-0.013,45.892-0.417,68.815,0.2c8.617,0.232,17.521,1.814,25.677,4.594
	c14.368,4.896,21.9,16.864,21.933,31.962c0.033,15.122-7.452,26.935-21.795,32.082c-7.265,2.608-15.214,4.381-22.899,4.558
	c-24.929,0.573-49.878,0.237-74.819,0.241C580.027,342.862,579.437,342.733,578.407,342.615z M621.906,328.409
	c10.579,0,20.577,0.369,30.532-0.127c6.908-0.346,11.748-4.794,12.587-11.533c0.879-7.069,0.754-14.394-0.007-21.493
	c-0.613-5.731-4.575-10.367-10.424-10.968c-10.779-1.108-21.669-1.148-32.688-1.641
	C621.906,298.669,621.906,313.548,621.906,328.409z"/>
</svg>
