<?xml version="1.0" encoding="UTF-8"?><svg xmlns="http://www.w3.org/2000/svg" xmlns:xlink="http://www.w3.org/1999/xlink" viewBox="0 0 32 32" version="1.1"><path d="M16 7c-.598 0-1.188.02-1.781.031h-.156c-.54.016-1.086.032-1.626.063-.582.031-1.164.066-1.75.125-.59.054-1.187.105-1.78.187-1.259.172-2.626.446-3.563 1.407-1.028 1.054-1.23 2.609-1.313 4.03-.008.126.004.25 0 .376-.011.289-.027.586-.031.875v.281c0 .316-.008.621 0 .938 0 .07-.004.148 0 .218.023.75.078 1.5.125 2.25.047.746.121 1.492.219 2.25.047.383.09.774.156 1.157.082.484.164.96.281 1.437.18.73.43 1.465.844 2.094.398.605.984 1.043 1.625 1.343.805.38 1.676.528 2.563.625a43.47 43.47 0 0 0 1.843.157c.094.008.188-.004.281 0 1.352.082 2.704.148 4.063.156 1.36-.008 2.71-.074 4.063-.156.093-.004.187.008.28 0a43.47 43.47 0 0 0 1.845-.157c.886-.097 1.757-.246 2.562-.625.64-.3 1.227-.738 1.625-1.343.414-.63.664-1.364.844-2.094.117-.477.199-.953.281-1.438.066-.382.11-.773.156-1.156.098-.758.172-1.504.219-2.25.047-.75.102-1.5.125-2.25.004-.07 0-.148 0-.219.008-.316 0-.62 0-.937v-.281c-.004-.29-.02-.586-.031-.875-.004-.125.008-.25 0-.375-.082-1.426-.285-2.977-1.313-4.031-.937-.961-2.304-1.235-3.562-1.407-.594-.082-1.192-.133-1.782-.187-.59-.055-1.16-.094-1.75-.125-.539-.032-1.085-.047-1.625-.063h-.156C17.188 7.016 16.594 7 16 7zm0 2c1.71 0 3.367.055 5.031.219-.476 1.824-.992 4.015-1.468 5.75-.422 1.531-.899 3.523-2.72 3.719-.273.027-.55.058-.843.062-.293-.004-.574-.035-.844-.063-1.82-.195-2.297-2.187-2.719-3.718-.476-1.735-.996-3.926-1.468-5.75C12.633 9.055 14.289 9 16 9zm-7.281.531v.031c.02 1.528.09 3.067.156 4.594.21 3.512.477 7.012.906 10.5-.504-.086-.992-.215-1.406-.406-.469-.215-.824-.488-1.063-.844-.277-.418-.472-.988-.625-1.593-.332-1.336-.472-2.731-.562-4.157-.09-1.476-.176-2.933-.094-4.343.074-1.227.297-2.32.938-2.97.418-.421 1.027-.655 1.75-.812zm14.562 0c.723.156 1.332.39 1.75.813.645.648.867 1.742.938 2.969.082 1.41-.004 2.867-.094 4.343-.09 1.426-.23 2.824-.563 4.157-.152.605-.343 1.175-.625 1.593-.238.36-.593.63-1.062.844-.414.191-.902.32-1.406.406.43-3.488.695-6.988.906-10.5.063-1.523.137-3.066.156-4.594v-.03zM16 21.25c.426.004.848.05 1.219.125 1.117.223 1.16.324 1.593 1.781 0 0 .293 1.055.5 1.75-1.101.059-2.207.09-3.312.094a66.836 66.836 0 0 1-3.313-.094c.208-.695.5-1.75.5-1.75.434-1.457.477-1.554 1.594-1.781A6.633 6.633 0 0 1 16 21.25z" id="surface1"/><metadata><rdf:RDF xmlns:rdf="http://www.w3.org/1999/02/22-rdf-syntax-ns#" xmlns:rdfs="http://www.w3.org/2000/01/rdf-schema#" xmlns:dc="http://purl.org/dc/elements/1.1/"><rdf:Description about="https://iconscout.com/legal#licenses" dc:title="honda" dc:description="honda" dc:publisher="Iconscout" dc:date="2017-12-30" dc:format="image/svg+xml" dc:language="en"><dc:creator><rdf:Bag><rdf:li>Icons8</rdf:li></rdf:Bag></dc:creator></rdf:Description></rdf:RDF></metadata></svg>