<svg width="202" height="101" viewBox="0 0 202 101" fill="none" xmlns="http://www.w3.org/2000/svg">
<path fill-rule="evenodd" clip-rule="evenodd" d="M59.7835 68C56.9455 67.4288 54.0737 67.0764 51.2825 66.2057C49.5755 65.6729 47.8753 64.6175 46.3746 63.3266C39.1764 57.1324 39.2299 42.607 46.4071 36.3709C49.1281 34.0059 52.1421 32.8799 55.2704 32.4455C60.7823 31.6788 66.2775 31.6655 71.5924 34.3337C78.2318 37.6664 81.4268 46.0592 79.3927 54.942C77.8866 61.5209 74.2041 64.6923 69.7726 66.2039C66.9991 67.1498 64.1105 67.4238 61.2735 68C60.7772 68 60.2802 68 59.7835 68ZM60.5512 38.2322C59.7951 38.3069 58.8987 38.3274 58.0162 38.4929C54.8237 39.0933 52.7996 41.4505 52.2797 45.777C51.6728 50.8224 51.3875 55.9472 54.7705 59.5986C55.342 60.2158 56.0846 60.7364 56.785 60.8513C58.6402 61.1562 60.5306 61.5004 62.3804 61.3121C66.4473 60.8973 68.5069 58.0354 68.9546 52.366C69.1064 50.4413 69.0484 48.4246 68.8244 46.5114C68.2384 41.5015 66.1908 38.936 62.6166 38.4414C61.9755 38.352 61.3312 38.3096 60.5512 38.2322Z" fill="#FF0000"/>
<path fill-rule="evenodd" clip-rule="evenodd" d="M199.999 68C194.409 68 188.819 68 183.12 68C183.12 66.3497 183.12 64.8968 183.12 63.249C183.719 63.1072 184.355 62.9762 184.989 62.8022C185.68 62.6117 186.661 62.3769 186.445 60.8236C186.245 59.3819 185.463 57.1674 184.889 57.1157C181.18 56.7796 177.453 56.7766 173.745 57.1152C173.163 57.1684 172.388 59.3809 172.163 60.8353C171.915 62.4456 172.887 62.6634 173.577 62.85C174.135 63.0005 174.697 63.096 175.314 63.2271C175.314 64.7833 175.314 66.2469 175.314 67.8153C171.181 67.8153 167.12 67.8153 163 67.8153C163 66.2275 163 64.7687 163 63.4303C163.105 63.2622 163.136 63.1691 163.164 63.1725C165.741 63.5189 167.094 60.8211 168.235 56.9442C169.768 51.7396 171.576 46.8098 173.256 41.7499C174.242 38.7783 173.899 37.6357 171.977 37.3302C171.169 37.2011 170.364 36.995 169.502 36.8123C169.502 35.2249 169.502 33.7652 169.502 32.0506C170.621 32.0506 171.672 32.0506 172.722 32.0506C176.317 32.0506 179.914 32.1461 183.507 32.0024C184.899 31.9473 185.794 32.8497 186.535 34.973C189.225 42.6766 192.108 50.1649 194.655 58.022C195.963 62.0553 197.66 63.3762 200 63.0434C199.999 64.6956 199.999 66.3473 199.999 68ZM175.424 50.4758C178.067 50.4758 180.477 50.4758 183.073 50.4758C181.723 46.6866 180.484 43.2048 179.129 39.4005C177.847 43.2311 176.682 46.7134 175.424 50.4758Z" fill="#FF0000"/>
<path fill-rule="evenodd" clip-rule="evenodd" d="M0 36.6637C0 34.9908 0 33.5718 0 32.0005C5.66635 32.0005 11.2667 32.0005 16.9754 32.0005C16.9754 33.526 16.9754 34.9923 16.9754 36.6494C16.1667 36.8274 15.3775 37.0561 14.5828 37.1651C13.451 37.3194 12.8415 38.3208 12.8056 40.2077C12.7682 42.166 12.7971 44.1279 12.7971 46.2396C17.2832 46.2396 21.6619 46.2396 26.1786 46.2396C26.1786 44.1323 26.2236 42.1 26.1652 40.077C26.1141 38.3159 25.5063 37.3411 24.442 37.1789C23.6388 37.0562 22.8398 36.857 21.963 36.6755C21.963 35.1215 21.963 33.6374 21.963 32C27.6293 32 33.2723 32 39 32C39 33.5472 39 35.0238 39 36.6578C38.2173 36.8298 37.4699 37.0734 36.7169 37.1419C35.398 37.2608 34.7557 38.3252 34.7618 40.5898C34.7788 46.8963 34.7741 53.2028 34.7651 59.5088C34.7621 61.6447 35.3588 62.723 36.6293 62.8546C37.3898 62.9335 38.1442 63.178 38.9912 63.3693C38.9912 64.8642 38.9912 66.3453 38.9912 68C33.3538 68 27.7114 68 21.9738 68C21.9738 66.5376 21.9738 65.0605 21.9738 63.3674C22.777 63.1874 23.6073 62.9443 24.4438 62.828C25.6001 62.6668 26.1404 61.5554 26.1789 59.7144C26.2189 57.8206 26.1877 55.9229 26.1877 53.8156C21.7527 53.8156 17.3729 53.8156 12.8897 53.8156C12.8897 56.0822 12.77 58.4276 12.9554 60.7025C13.0194 61.4889 13.7817 62.3976 14.3334 62.717C15.1219 63.1741 16.0104 63.1416 16.9675 63.3417C16.9675 64.8504 16.9675 66.3261 16.9675 67.9872C11.3523 67.9872 5.71775 67.9872 0.0140203 67.9872C0.0140203 66.4361 0.0140203 64.9594 0.0140203 63.3753C0.87678 63.18 1.66857 62.9414 2.46649 62.8354C3.54333 62.6919 4.17711 61.731 4.18762 59.9649C4.22764 53.3581 4.22968 46.7489 4.1961 40.1421C4.18646 38.2587 3.51033 37.2889 2.38237 37.1587C1.62476 37.0714 0.872982 36.8505 0 36.6637Z" fill="#FF0000"/>
<path fill-rule="evenodd" clip-rule="evenodd" d="M96.0272 63.2847C96.0272 64.8931 96.0272 66.3568 96.0272 67.9309C91.3487 67.9309 86.7544 67.9309 82.0402 67.9309C82.0402 66.4218 82.0402 64.9043 82.0402 63.2817C82.9376 63.094 83.8064 62.8882 84.678 62.7361C85.7871 62.5425 86.3633 61.5555 86.366 59.7672C86.3763 53.2876 86.3751 46.8081 86.3678 40.328C86.3654 38.3989 85.7068 37.4764 84.5526 37.3053C83.7228 37.1831 82.8975 36.9792 82 36.7969C82 35.2335 82 33.7668 82 32.0289C82.6188 32.0289 83.162 32.0289 83.705 32.0289C88.0803 32.0294 92.4557 32.0778 96.8305 32.0005C98.1652 31.9771 99.0993 32.7226 99.9019 34.4654C103.295 41.8323 106.748 49.1273 110.18 56.4468C110.456 57.0354 110.744 57.6088 111.215 58.5778C111.293 57.624 111.371 57.1014 111.372 56.5787C111.382 51.6807 111.386 46.7832 111.375 41.8851C111.367 38.1965 111.049 37.6544 108.783 37.2173C108.23 37.1107 107.682 36.944 107.022 36.7783C107.022 35.3083 107.022 33.8416 107.022 32.2015C111.649 32.2015 116.273 32.2015 121 32.2015C121 33.6867 121 35.1508 121 36.7896C120.256 36.9548 119.531 37.146 118.801 37.2731C117.042 37.5801 116.634 38.2112 116.624 41.1376C116.599 49.1249 116.614 57.1126 116.613 65.0994C116.612 65.9891 116.613 66.8798 116.613 67.971C112.669 67.971 108.87 68.084 105.077 67.864C104.412 67.8258 103.634 66.5709 103.155 65.5687C99.7648 58.4815 96.4397 51.3131 93.0935 44.1711C92.7339 43.4026 92.3688 42.6385 91.8077 41.4554C91.7289 42.4419 91.6519 42.9601 91.6507 43.4793C91.6413 48.2263 91.6434 52.9738 91.6455 57.7203C91.6479 62.0062 91.8092 62.3103 94.3597 62.9014C94.8655 63.0187 95.3722 63.1341 96.0272 63.2847Z" fill="#FF0000"/>
<path fill-rule="evenodd" clip-rule="evenodd" d="M123 67.8337C123 66.2284 123 64.8201 123 63.2382C123.875 63.0492 124.715 62.7836 125.562 62.7056C126.86 62.5867 127.527 61.4965 127.538 59.5702C127.572 53.119 127.567 46.6664 127.542 40.2142C127.536 38.475 126.959 37.436 125.78 37.2976C124.975 37.2036 124.177 36.9886 123.316 36.8161C123.316 35.2289 123.316 33.7704 123.316 32.1846C123.814 32.1398 124.234 32.0696 124.655 32.0691C131.816 32.0628 138.981 31.8659 146.137 32.1666C148.827 32.2796 151.607 33.0506 154.153 34.4054C158.638 36.7913 160.99 42.6235 161 49.9811C161.01 57.3504 158.674 63.1071 154.196 65.6154C151.928 66.8863 149.447 67.7504 147.048 67.8366C139.265 68.1158 131.477 67.9521 123.691 67.9541C123.506 67.9541 123.322 67.8912 123 67.8337ZM136.579 60.9108C139.882 60.9108 143.003 61.0906 146.111 60.8489C148.267 60.6803 149.778 58.5127 150.04 55.2286C150.314 51.7837 150.275 48.2141 150.038 44.7546C149.847 41.9618 148.61 39.7025 146.784 39.4097C143.419 38.8697 140.019 38.8502 136.579 38.61C136.579 46.4178 136.579 53.6687 136.579 60.9108Z" fill="#FF0000"/>
</svg>
