<svg width="601" height="171" viewBox="0 0 601 171" fill="none" xmlns="http://www.w3.org/2000/svg">
<path d="M553.5 146.801H570.7L600.5 71.3008H583.5L571.2 108.901L558.2 71.3008H539.2L561.8 125.801L553.5 146.801ZM468 89.2008V127.901H450.6V71.3008H462.8L466.4 76.2008C471.1 72.2008 476.2 69.9008 482 69.9008C489.8 69.9008 495.7 72.2008 499.4 77.9008C504.7 73.1008 510.3 69.9008 517.4 69.9008C530.8 69.9008 538.6 76.8008 538.6 95.6008V127.801H521.2V97.6008C521.2 88.9008 517.7 86.4008 512.1 86.4008C508.8 86.4008 506.1 87.3008 503 89.3008C503.2 91.3008 503.3 93.4008 503.3 95.7008V127.901H485.9V97.7008C485.9 89.0008 482.4 86.5008 476.7 86.5008C473.6 86.5008 471 87.2008 468 89.2008ZM407.4 94.0008H429.7C428.5 86.6008 424.5 83.1008 418.6 83.1008C413.6 83.2008 408.8 86.1008 407.4 94.0008ZM419.9 129.001C403.2 129.001 389.8 120.801 389.8 99.0008C389.8 78.7008 402.8 69.9008 417.7 69.9008C435.7 69.9008 443.8 82.5008 443.8 102.401H407.4C408.6 112.201 414.7 115.001 422.7 115.001C430.5 115.001 436.5 113.101 441.2 109.901L438.8 123.701C434.3 127.201 428.9 129.001 419.9 129.001ZM355.2 114.401C359.2 114.401 362.1 113.701 365.2 111.401V86.8008C362.5 85.1008 359.7 84.4008 355.7 84.4008C347.2 84.4008 342.4 90.1008 342.4 99.7008C342.4 109.001 347.4 114.401 355.2 114.401ZM368.6 123.701C364.1 127.101 358.9 129.201 351.6 129.201C336.1 129.201 324.9 119.601 324.9 100.001C324.9 80.4008 337.8 69.9008 354.3 69.9008C358.1 69.9008 361.9 70.5008 365.3 71.8008V47.8008H382.7V128.001H371.7L368.6 123.701ZM251.3 94.4008V52.4008H269.3V94.0008C269.3 109.001 276 112.001 285.2 112.001C295.2 112.001 300.4 107.601 300.4 94.0008V52.4008H318.5V94.4008C318.5 119.101 307.7 129.501 284.3 129.501C262.6 129.401 251.3 120.501 251.3 94.4008Z" fill="#645A53"/>
<path d="M205.3 97.5004C204.6 96.9004 203.7 96.5004 202.9 96.3004C197.6 101.6 191.2 107.1 185.4 110.9C182.8 112.7 179.4 113.5 177.2 113.5C172.1 113.5 169.9 108.7 169.3 101C168.4 90.7004 167.8 78.3004 167.8 59.2004C167.8 39.6004 163.4 26.3004 151.5 25.3004C151 25.3004 150.5 25.2004 150 25.2004C142.7 25.2004 139.2 28.9004 134.6 38.4004C130.6 46.5004 124.5 58.4004 113 80.8004C103.1 100.1 92.1001 117.2 82.6001 129.1C80.0001 132.4 77.9001 134.6 75.9001 135.9C74.6001 136.8 73.3001 137.2 72.0001 137.2C68.3001 137.2 65.5001 134 64.6001 126.7C64.4001 125 64.3001 123 64.3001 120.7C64.3001 105.6 70.0001 81.0004 79.9001 44.7004C87.2001 18.4004 84.1001 0.400391 68.2001 0.400391H68.1001H68.0001C64.4001 0.400391 61.4001 1.7004 58.6001 4.0004C55.8001 6.2004 52.9001 11.0004 50.3001 17.5004C47.3001 24.8004 29.2001 61.1004 0.500081 79.7004C0.200081 86.8004 4.20008 93.9004 12.3001 94.7004C19.7001 95.4004 25.0001 92.3004 31.8001 87.7004C31.3001 90.0004 30.8001 92.1004 30.4001 94.0004C29.9001 96.3004 29.5001 98.3004 29.1001 99.9004C28.6001 102.3 28.3001 103.8 28.2001 104.2C27.3001 108.5 26.6001 112.6 26.1001 116.5C22.0001 152.8 38.9001 170.7 58.6001 170.7C61.9001 170.7 65.2001 170.3 68.4001 169.5C90.1001 164 111 139.1 135.7 81.8004C135.3 88.0004 135.3 93.9004 135.6 99.3004C137.2 132.1 150.2 142 168.6 142C182.5 142 195.5 134.8 202.1 125.8C206.9 119.4 208.9 112.4 208.9 106.9C208.8 102.6 207.5 99.2004 205.3 97.5004Z" fill="#EA5252"/>
</svg>
