<svg width="641" height="196" viewBox="0 0 641 196" fill="none" xmlns="http://www.w3.org/2000/svg">
<path d="M589.886 167.891H608.233L640.02 81.3082H621.886L608.766 124.428L594.899 81.3082H574.633L598.739 143.809L589.886 167.891ZM498.685 101.836V146.217H480.125V81.3082H493.138L496.978 86.9275C501.992 82.3403 507.432 79.7026 513.619 79.7026C521.939 79.7026 528.232 82.3403 532.179 88.877C537.832 83.3724 543.806 79.7026 551.379 79.7026C565.672 79.7026 573.992 87.6156 573.992 109.175V146.102H555.432V111.469C555.432 101.492 551.699 98.6248 545.726 98.6248C542.206 98.6248 539.325 99.6569 536.019 101.951C536.232 104.244 536.339 106.652 536.339 109.29V146.217H517.779V111.584C517.779 101.607 514.045 98.7395 507.965 98.7395C504.659 98.7395 501.885 99.5423 498.685 101.836ZM434.044 107.34H457.831C456.551 98.8542 452.285 94.8404 445.991 94.8404C440.658 94.9551 435.538 98.2808 434.044 107.34ZM447.378 147.478C429.564 147.478 415.271 138.075 415.271 113.074C415.271 89.7945 429.138 79.7026 445.031 79.7026C464.231 79.7026 472.871 94.1523 472.871 116.974H434.044C435.324 128.212 441.831 131.423 450.365 131.423C458.685 131.423 465.085 129.244 470.098 125.575L467.538 141.4C462.738 145.414 456.978 147.478 447.378 147.478ZM378.364 130.735C382.631 130.735 385.724 129.932 389.031 127.295V99.0835C386.151 97.134 383.164 96.3312 378.897 96.3312C369.831 96.3312 364.71 102.868 364.71 113.877C364.71 124.542 370.044 130.735 378.364 130.735ZM392.657 141.4C387.857 145.3 382.311 147.708 374.524 147.708C357.99 147.708 346.044 136.699 346.044 114.221C346.044 91.744 359.804 79.7026 377.404 79.7026C381.457 79.7026 385.511 80.3907 389.137 81.8816V54.3584H407.698V146.332H395.964L392.657 141.4ZM267.536 107.799V59.6337H286.736V107.34C286.736 124.542 293.883 127.983 303.697 127.983C314.363 127.983 319.91 122.937 319.91 107.34V59.6337H339.217V107.799C339.217 136.125 327.697 148.052 302.736 148.052C279.59 147.937 267.536 137.731 267.536 107.799Z" fill="#645A53"/>
<path d="M218.472 111.354C217.726 110.666 216.766 110.207 215.912 109.978C210.259 116.056 203.432 122.364 197.245 126.721C194.472 128.786 190.845 129.703 188.499 129.703C183.059 129.703 180.712 124.198 180.072 115.368C179.112 103.556 178.472 89.3357 178.472 67.4318C178.472 44.9546 173.779 29.7021 161.085 28.5553C160.552 28.5553 160.018 28.4407 159.485 28.4407C151.698 28.4407 147.965 32.6838 143.058 43.5784C138.792 52.8675 132.285 66.5144 120.018 92.2027C109.458 114.336 97.7244 133.946 87.591 147.593C84.8176 151.378 82.5776 153.901 80.4443 155.391C79.0576 156.423 77.6709 156.882 76.2842 156.882C72.3375 156.882 69.3508 153.212 68.3908 144.841C68.1775 142.891 68.0708 140.598 68.0708 137.96C68.0708 120.643 74.1509 92.4321 84.711 50.8032C92.4977 20.6424 89.191 0 72.2308 0H72.1242H72.0175C68.1775 0 64.9774 1.49085 61.9907 4.12849C59.004 6.65145 55.9107 12.1561 53.1373 19.6103C49.9373 27.9819 30.6304 69.6108 0.0167534 90.9412C-0.30325 99.0835 3.96346 107.226 12.6035 108.143C20.497 108.946 26.1504 105.391 33.4038 100.116C32.8704 102.753 32.3371 105.162 31.9104 107.34C31.3771 109.978 30.9504 112.272 30.5237 114.107C29.9904 116.859 29.6704 118.579 29.5637 119.038C28.6037 123.969 27.857 128.671 27.3237 133.143C22.9503 174.772 40.9772 195.3 61.9907 195.3C65.5108 195.3 69.0308 194.841 72.4442 193.924C95.5911 187.616 117.885 159.061 144.232 93.3495C143.805 100.46 143.805 107.226 144.125 113.418C145.832 151.034 159.698 162.387 179.325 162.387C194.152 162.387 208.019 154.13 215.059 143.809C220.179 136.469 222.312 128.442 222.312 122.134C222.206 117.203 220.819 113.304 218.472 111.354Z" fill="#EA5252"/>
</svg>
