<?xml version="1.0" encoding="UTF-8"?>
<svg width="430px" height="379px" viewBox="0 0 430 379" version="1.1" xmlns="http://www.w3.org/2000/svg" xmlns:xlink="http://www.w3.org/1999/xlink">
    <!-- Generator: Sketch 54.1 (76490) - https://sketchapp.com -->
    <title>tutor</title>
    <desc>Created with Sketch.</desc>
    <defs>
        <path d="M0.374254386,80.3624929 C0.374254386,124.615969 36.2998509,160.48993 80.6129825,160.48993 L80.6129825,160.48993 C124.930351,160.48993 160.854535,124.615969 160.854535,80.3624929 L160.854535,80.3624929 C160.854535,36.1104258 124.930351,0.235055484 80.6129825,0.235055484 L80.6129825,0.235055484 C36.2998509,0.235055484 0.374254386,36.1104258 0.374254386,80.3624929 L0.374254386,80.3624929 Z" id="path-1"></path>
        <path d="M-0.000375,0.997380952 C4.929,11.599119 7.42875,22.9692619 7.42875,34.7973571 L7.42875,34.7973571 C7.42875,42.751119 6.27375,50.6051429 3.994,58.1318571 L3.994,58.1318571 L6.011125,58.769619 C8.35275,51.035 9.538,42.9702619 9.538,34.7973571 L9.538,34.7973571 C9.538,22.6461667 6.9695,10.9613571 1.905375,0.0716428571 L1.905375,0.0716428571 L-0.000375,0.997380952 Z" id="path-3"></path>
        <path d="M0.175414634,0.428297872 C4.73195122,30.9315319 26.8525854,56.5704255 56.5259512,65.7388085 L56.5259512,65.7388085 L57.1710244,63.6801702 C28.2898537,54.7519149 6.76195122,29.8011064 2.3242439,0.11093617 L2.3242439,0.11093617 L0.175414634,0.428297872 Z" id="path-5"></path>
        <path d="M0.5866,7.811 L2.478,8.816125 C3.8696,6.286125 5.138,3.651625 6.2384,0.9855 L6.2384,0.9855 L4.2462,0.19075 C3.1724,2.784 1.9418,5.348375 0.5866,7.811 L0.5866,7.811 Z" id="path-7"></path>
        <path d="M0.00670967742,16.0921406 C0.00670967742,24.8622773 7.14322581,32.003168 15.9190968,32.003168 L15.9190968,32.003168 C24.6949677,32.003168 31.8357419,24.8622773 31.8357419,16.0921406 L31.8357419,16.0921406 C31.8357419,7.31775 24.6949677,0.179695312 15.9190968,0.179695312 L15.9190968,0.179695312 C7.14322581,0.179695312 0.00670967742,7.31775 0.00670967742,16.0921406 L0.00670967742,16.0921406 Z M2.18683871,16.0921406 C2.18683871,8.51735156 8.34967742,2.35769531 15.9190968,2.35769531 L15.9190968,2.35769531 C23.4927742,2.35769531 29.6541935,8.51735156 29.6541935,16.0921406 L29.6541935,16.0921406 C29.6541935,23.6626758 23.4927742,29.822332 15.9190968,29.822332 L15.9190968,29.822332 C8.34967742,29.822332 2.18683871,23.6626758 2.18683871,16.0921406 L2.18683871,16.0921406 Z" id="path-9"></path>
        <path d="M0.124973915,39.6092358 C0.124973915,44.8109387 1.13880725,49.7632736 2.97128994,54.3051321 L2.97128994,54.3051321 L75.8956757,54.3051321 C77.7309668,49.7632736 78.7419917,44.8109387 78.7419917,39.6092358 L78.7419917,39.6092358 C78.7419917,17.9282358 61.1347117,0.359004717 39.4355891,0.359004717 L39.4355891,0.359004717 C17.7196161,0.359004717 0.124973915,17.9282358 0.124973915,39.6092358 L0.124973915,39.6092358 Z" id="path-11"></path>
        <path d="M0.58075,11.520125 C0.58075,17.620875 5.5214375,22.56875 11.617875,22.56875 L11.617875,22.56875 C17.7114375,22.56875 22.655,17.620875 22.655,11.520125 L22.655,11.520125 C22.655,5.4208125 17.7114375,0.474375 11.617875,0.474375 L11.617875,0.474375 C5.5214375,0.474375 0.58075,5.4208125 0.58075,11.520125 L0.58075,11.520125 Z" id="path-13"></path>
        <path d="M2.47436364,8.21943574 C-1.35131818,15.4278997 1.37668182,24.3841693 8.57431818,28.2183386 L8.57431818,28.2183386 C15.7719545,32.0525078 24.7041818,29.3172414 28.5340909,22.1059561 L28.5340909,22.1059561 C32.3611818,14.8960815 29.6289545,5.94263323 22.4327273,2.10705329 L22.4327273,2.10705329 C20.2275,0.931974922 17.8545909,0.373354232 15.5183182,0.373354232 L15.5183182,0.373354232 C10.2356364,0.373354232 5.12909091,3.22147335 2.47436364,8.21943574 L2.47436364,8.21943574 Z" id="path-15"></path>
        <path d="M0.835590909,14.5055238 C0.835590909,22.5067619 7.44845455,28.9903333 15.6028636,28.9903333 L15.6028636,28.9903333 C23.7586818,28.9903333 30.3701364,22.5067619 30.3701364,14.5055238 L30.3701364,14.5055238 C30.3701364,6.50566667 23.7586818,0.0193333333 15.6028636,0.0193333333 L15.6028636,0.0193333333 C7.44845455,0.0193333333 0.835590909,6.50566667 0.835590909,14.5055238 L0.835590909,14.5055238 Z" id="path-17"></path>
        <path d="M0.838409091,14.5055238 C0.838409091,22.504 7.45127273,28.9917143 15.6056818,28.9917143 L15.6056818,28.9917143 C23.7615,28.9917143 30.3743636,22.504 30.3743636,14.5055238 L30.3743636,14.5055238 C30.3743636,6.50566667 23.7615,0.0193333333 15.6056818,0.0193333333 L15.6056818,0.0193333333 C7.45127273,0.0193333333 0.838409091,6.50566667 0.838409091,14.5055238 L0.838409091,14.5055238 Z" id="path-19"></path>
        <path d="M0.123569714,0.0193333333 L0.84673338,14.5055238 L0.881838412,15.2139524 C1.26658957,22.9293333 7.73153232,28.9917143 15.5810175,28.9917143 L15.5810175,28.9917143 L63.2817355,28.9917143 C71.1312207,28.9917143 77.5961634,22.9307143 77.9851272,15.2139524 L77.9851272,15.2139524 L78.018828,14.5055238 L78.7405875,0.0193333333 L0.123569714,0.0193333333 Z" id="path-21"></path>
        <path d="M0.938571429,10.1557143 C0.938571429,15.2714286 5.08285714,19.42 10.1971429,19.42 L10.1971429,19.42 C15.31,19.42 19.4528571,15.2714286 19.4528571,10.1557143 L19.4528571,10.1557143 C19.4528571,5.03714286 15.31,0.891428571 10.1971429,0.891428571 L10.1971429,0.891428571 C5.08285714,0.891428571 0.938571429,5.03714286 0.938571429,10.1557143 L0.938571429,10.1557143 Z" id="path-23"></path>
        <path d="M0.195301053,13.1798653 C0.195301053,20.1647242 5.85235368,25.8246232 12.83152,25.8246232 L12.83152,25.8246232 C19.8121095,25.8246232 25.4677389,20.1647242 25.4677389,13.1798653 L25.4677389,13.1798653 C25.4677389,6.19358316 19.8121095,0.532261053 12.83152,0.532261053 L12.83152,0.532261053 C5.85235368,0.532261053 0.195301053,6.19358316 0.195301053,13.1798653 L0.195301053,13.1798653 Z" id="path-25"></path>
        <path d="M0.91503913,0.149875 L0.91503913,10.715375 L28.0570217,10.715375 C29.5375188,10.715375 30.7394652,9.52875 30.7394652,8.064375 L30.7394652,8.064375 C30.7394652,7.093625 30.2032551,6.20125 29.3411406,5.7365 L29.3411406,5.7365 L18.9762681,0.149875 L0.91503913,0.149875 Z" id="path-27"></path>
        <path d="M0.971428571,7.13857143 C-0.744285714,11.96 1.77142857,17.2585714 6.59,18.9742857 L6.59,18.9742857 C11.4028571,20.69 16.7,18.1742857 18.4128571,13.3542857 L18.4128571,13.3542857 C20.1271429,8.53285714 17.6128571,3.23285714 12.7957143,1.51857143 L12.7957143,1.51857143 C11.77,1.15285714 10.7214286,0.978571429 9.69285714,0.978571429 L9.69285714,0.978571429 C5.88714286,0.98 2.32142857,3.34714286 0.971428571,7.13857143 L0.971428571,7.13857143 Z" id="path-29"></path>
        <path d="M0.719444444,8.41873684 C-1.5625,14.9911053 1.78611111,22.2128947 8.20138889,24.5533684 L8.20138889,24.5533684 C14.6180556,26.8924211 21.6722222,23.4634211 23.9555556,16.8910526 L23.9555556,16.8910526 C26.2402778,10.3186842 22.8916667,3.09547368 16.475,0.757842105 L16.475,0.757842105 C15.1069444,0.259052632 13.7097222,0.0217368421 12.3375,0.0217368421 L12.3375,0.0217368421 C7.26666667,0.0217368421 2.51666667,3.24894737 0.719444444,8.41873684 L0.719444444,8.41873684 Z" id="path-31"></path>
        <path d="M0.892832579,17.0977391 L2.83829864,28.7568696 C3.00249774,29.7266087 3.70767421,30.5377391 4.68114027,30.8646957 L4.68114027,30.8646957 C6.15306787,31.3627826 7.76720362,30.6337391 8.2920543,29.2382609 L8.2920543,29.2382609 L17.8727783,3.67304348 L7.26727602,0.0876521739 L0.892832579,17.0977391 Z" id="path-33"></path>
        <polygon id="path-35" points="0.00552087114 17.5175726 17.8669192 39.7991453 38.7427132 19.5724786 17.6847305 0.363452991"></polygon>
        <polygon id="path-37" points="16.0754568 0.991337838 0.228148148 208.707682 5.58617284 208.707682 26.7030123 11.8438041 27.8188642 0.991337838"></polygon>
        <polygon id="path-39" points="0.868619048 0.991337838 1.98442857 11.8438041 23.0715714 208.707682 28.4241429 208.707682 12.5956667 0.991337838"></polygon>
        <polygon id="path-41" points="0.116910506 0.0853333333 361.074576 0.0853333333 361.074576 10.268 0.116910506 10.268"></polygon>
        <polygon id="path-43" points="3.63698521 0.0877358491 0.180852071 74.5783019 104.197899 74.5783019 104.95997 58.1915094 107.655444 0.0877358491"></polygon>
        <path d="M0.800416667,7.82545455 C0.604916667,12.1483636 3.85475,15.6509091 8.05941667,15.6509091 L8.05941667,15.6509091 C12.2626667,15.6509091 15.8298333,12.1483636 16.0281667,7.82545455 L16.0281667,7.82545455 C16.2250833,3.50836364 12.9724167,0.00145454545 8.76916667,0.00145454545 L8.76916667,0.00145454545 C4.56308333,0.00145454545 0.997333333,3.50836364 0.800416667,7.82545455 L0.800416667,7.82545455 Z" id="path-45"></path>
        <polygon id="path-47" points="0.177717561 16.575 104.024824 16.575 104.784241 0.172833333"></polygon>
        <polygon id="path-49" points="0.307821429 2.5665 37.9135714 14.793 38.532 12.585 0.92625 0.36"></polygon>
        <path d="M8.21614035,0.366193548 C5.52561404,0.891354839 1.8722807,3.48877419 1.97754386,6.26219355 L1.97754386,6.26219355 C2.08701754,9.15341935 4.80982456,11.4925161 4.71859649,14.3823226 L4.71859649,14.3823226 C4.65684211,16.2771613 3.40070175,17.8781935 2.31298246,19.4181935 L2.31298246,19.4181935 C1.22105263,20.9610323 0.209122807,22.8388387 0.70877193,24.6627097 L0.70877193,24.6627097 C1.44842105,27.3495484 4.8645614,28.179871 6.52070175,30.4096774 L6.52070175,30.4096774 C7.58736842,31.8446452 7.82315789,33.7338065 7.89052632,35.5292903 L7.89052632,35.5292903 C7.95649123,37.3233548 7.90877193,39.1628387 8.50245614,40.856129 L8.50245614,40.856129 C9.93684211,44.9637419 15.0301754,44.4712258 16.6807018,36.7243871 L16.6807018,36.7243871 C17.0975439,34.7699355 17.7964912,32.8892903 18.3522807,30.9731613 L18.3522807,30.9731613 C18.9291228,28.9974194 19.5059649,26.991871 19.4975439,24.9323871 L19.4975439,24.9323871 C19.4891228,22.2569032 18.4392982,19.5984516 16.6259649,17.6525161 L16.6259649,17.6525161 C15.9129825,16.8903226 15.0835088,16.2246452 14.5361404,15.3347097 L14.5361404,15.3347097 C13.9887719,14.4447742 13.7866667,13.2212903 14.3985965,12.3767742 L14.3985965,12.3767742 C15.28,11.1547097 17.1677193,11.420129 18.4603509,10.6593548 L18.4603509,10.6593548 C20.085614,9.69845161 20.3115789,7.25148387 19.3852632,5.59225806 L19.3852632,5.59225806 C18.557193,4.11329032 15.1115789,0.181677419 10.1038596,0.181677419 L10.1038596,0.181677419 C9.49754386,0.181677419 8.86736842,0.238451613 8.21614035,0.366193548 L8.21614035,0.366193548 Z" id="path-51"></path>
        <polygon id="path-53" points="0.839539326 0.0075 429.666649 0.0075 429.666649 2.5545 0.839539326 2.5545"></polygon>
        <polygon id="path-55" points="0.0784 0.257833333 2.2288 33.78325 17.8136 33.78325 19.964 0.257833333"></polygon>
        <polygon id="path-57" points="0.1344 74.5273585 2.282 74.6292453 5.712 0.137264151 3.563 0.0367924528"></polygon>
        <polygon id="path-59" points="0.117709091 0.263 77.3107636 0.263 77.3107636 1.952 0.117709091 1.952"></polygon>
        <path d="M0.928212766,1.064 L197.776723,1.064 L0.928212766,1.064 Z" id="path-61"></path>
        <polygon id="path-63" points="0.928212766 0.952 197.778128 0.952 197.778128 2.96666667 0.928212766 2.96666667"></polygon>
        <path d="M0.00140540541,1.064 L51.0766486,1.064 L0.00140540541,1.064 Z" id="path-65"></path>
        <polygon id="path-67" points="0.00421621622 0.826666667 51.0780541 0.826666667 51.0780541 2.84266667 0.00421621622 2.84266667"></polygon>
        <path d="M0.999,1.064 L8.496,1.064 L0.999,1.064 Z" id="path-69"></path>
        <polygon id="path-71" points="0.999 0.826666667 8.49728571 0.826666667 8.49728571 2.84266667 0.999 2.84266667"></polygon>
        <path d="M0.188470588,0.846 L17.7655462,0.846 L0.188470588,0.846 Z" id="path-73"></path>
    </defs>
    <g id="Page-1" stroke="none" stroke-width="1" fill="none" fill-rule="evenodd">
        <g id="become-a--tutor" transform="translate(-806.000000, -2690.000000)">
            <g id="tutor" transform="translate(806.000000, 2690.000000)">
                <polygon id="Fill-1" fill="#B7DDFF" points="181 214 227.640891 377 233 377 194.862659 214"></polygon>
                <polygon id="Fill-2" fill="#B7DDFF" points="117.136969 214 79 377 84.3592536 377 131 214"></polygon>
                <g id="Group-5" transform="translate(75.000000, 100.000000)">
                    <mask id="mask-2" fill="white">
                        <use xlink:href="#path-1"></use>
                    </mask>
                    <g id="Clip-4"></g>
                    <polygon id="Fill-3" fill="#FF809F" mask="url(#mask-2)" points="-7.34809649 168.194519 168.578298 168.194519 168.578298 -7.47094194 -7.34809649 -7.47094194"></polygon>
                </g>
                <g id="Group-8" transform="translate(227.000000, 145.000000)">
                    <mask id="mask-4" fill="white">
                        <use xlink:href="#path-3"></use>
                    </mask>
                    <g id="Clip-7"></g>
                    <polygon id="Fill-6" fill="#352BBD" mask="url(#mask-4)" points="-7.518875 66.4522619 17.060625 66.4522619 17.060625 -7.61240476 -7.518875 -7.61240476"></polygon>
                </g>
                <g id="Group-11" transform="translate(75.000000, 191.000000)">
                    <mask id="mask-6" fill="white">
                        <use xlink:href="#path-5"></use>
                    </mask>
                    <g id="Clip-10"></g>
                    <polygon id="Fill-9" fill="#352BBD" mask="url(#mask-6)" points="-7.55980488 73.4200851 64.9090732 73.4200851 64.9090732 -7.57034043 -7.55980488 -7.57034043"></polygon>
                </g>
                <g id="Group-14" transform="translate(224.000000, 210.000000)">
                    <mask id="mask-8" fill="white">
                        <use xlink:href="#path-7"></use>
                    </mask>
                    <g id="Clip-13"></g>
                    <polygon id="Fill-12" fill="#352BBD" mask="url(#mask-8)" points="-7.0686 16.336 13.895 16.336 13.895 -7.3305 -7.0686 -7.3305"></polygon>
                </g>
                <g id="Group-17" transform="translate(254.000000, 288.000000)">
                    <mask id="mask-10" fill="white">
                        <use xlink:href="#path-9"></use>
                    </mask>
                    <g id="Clip-16"></g>
                    <polygon id="Fill-15" fill="#352BBD" mask="url(#mask-10)" points="-7.75574194 39.7580391 39.5967742 39.7580391 39.5967742 -7.57659375 -7.75574194 -7.57659375"></polygon>
                </g>
                <polygon id="Fill-18" fill="#FF95A9" points="217 376 321 376 321 304 217 304"></polygon>
                <polygon id="Fill-19" fill="#352BBD" points="217 341 310 341 310 339 217 339"></polygon>
                <polygon id="Fill-20" fill="#FFFFFF" points="255 349 271 349 271 340 255 340"></polygon>
                <polygon id="Fill-21" fill="#D65D91" points="311 376 321 376 321 304 311 304"></polygon>
                <g id="Group-24" transform="translate(115.000000, 170.000000)">
                    <mask id="mask-12" fill="white">
                        <use xlink:href="#path-11"></use>
                    </mask>
                    <g id="Clip-23"></g>
                    <polygon id="Fill-22" fill="#352BBD" mask="url(#mask-12)" points="-7.55460295 61.9668915 86.4215686 61.9668915 86.4215686 -7.30275472 -7.55460295 -7.30275472"></polygon>
                </g>
                <g id="Group-27" transform="translate(143.000000, 198.000000)">
                    <mask id="mask-14" fill="white">
                        <use xlink:href="#path-13"></use>
                    </mask>
                    <g id="Clip-26"></g>
                    <polygon id="Fill-25" fill="#352BBD" mask="url(#mask-14)" points="-7.282375 30.4304375 30.51525 30.4304375 30.51525 -7.3873125 -7.282375 -7.3873125"></polygon>
                </g>
                <g id="Group-30" transform="translate(229.000000, 132.000000)">
                    <mask id="mask-16" fill="white">
                        <use xlink:href="#path-15"></use>
                    </mask>
                    <g id="Clip-29"></g>
                    <polygon id="Fill-28" fill="#7760DB" mask="url(#mask-16)" points="-6.96231818 37.6669279 37.9721818 37.6669279 37.9721818 -7.34294671 -6.96231818 -7.34294671"></polygon>
                </g>
                <g id="Group-33" transform="translate(115.000000, 210.000000)">
                    <mask id="mask-18" fill="white">
                        <use xlink:href="#path-17"></use>
                    </mask>
                    <g id="Clip-32"></g>
                    <polygon id="Fill-31" fill="#352BBD" mask="url(#mask-18)" points="-6.87072727 36.5427619 38.0778636 36.5427619 38.0778636 -7.53309524 -6.87072727 -7.53309524"></polygon>
                </g>
                <g id="Group-36" transform="translate(163.000000, 210.000000)">
                    <mask id="mask-20" fill="white">
                        <use xlink:href="#path-19"></use>
                    </mask>
                    <g id="Clip-35"></g>
                    <polygon id="Fill-34" fill="#352BBD" mask="url(#mask-20)" points="-6.8665 36.5441429 38.0792727 36.5441429 38.0792727 -7.53309524 -6.8665 -7.53309524"></polygon>
                </g>
                <g id="Group-39" transform="translate(115.000000, 210.000000)">
                    <mask id="mask-22" fill="white">
                        <use xlink:href="#path-21"></use>
                    </mask>
                    <g id="Clip-38"></g>
                    <polygon id="Fill-37" fill="#352BBD" mask="url(#mask-22)" points="-7.55600716 36.5441429 86.4201644 36.5441429 86.4201644 -7.53171429 -7.55600716 -7.53171429"></polygon>
                </g>
                <g id="Group-42" transform="translate(174.000000, 355.000000)">
                    <mask id="mask-24" fill="white">
                        <use xlink:href="#path-23"></use>
                    </mask>
                    <g id="Clip-41"></g>
                    <polygon id="Fill-40" fill="#352BBD" mask="url(#mask-24)" points="-6.87428571 27.2314286 27.2657143 27.2314286 27.2657143 -6.92285714 -6.87428571 -6.92285714"></polygon>
                </g>
                <g id="Group-45" transform="translate(168.000000, 214.000000)">
                    <mask id="mask-26" fill="white">
                        <use xlink:href="#path-25"></use>
                    </mask>
                    <g id="Clip-44"></g>
                    <polygon id="Fill-43" fill="#352BBD" mask="url(#mask-26)" points="-7.58794947 33.6092968 33.2524126 33.6092968 33.2524126 -7.25383579 -7.58794947 -7.25383579"></polygon>
                </g>
                <polygon id="Fill-46" fill="#352BBD" points="169 227 175.75611 365 194 365 194 227"></polygon>
                <g id="Group-49" transform="translate(175.000000, 365.000000)">
                    <mask id="mask-28" fill="white">
                        <use xlink:href="#path-27"></use>
                    </mask>
                    <g id="Clip-48"></g>
                    <polygon id="Fill-47" fill="#FF95A9" mask="url(#mask-28)" points="-6.70193043 18.236625 38.3578275 18.236625 38.3578275 -7.37 -6.70193043 -7.37"></polygon>
                </g>
                <g id="Group-52" transform="translate(233.000000, 237.000000)">
                    <mask id="mask-30" fill="white">
                        <use xlink:href="#path-29"></use>
                    </mask>
                    <g id="Clip-51"></g>
                    <polygon id="Fill-50" fill="#352BBD" mask="url(#mask-30)" points="-7.38 27.3271429 26.7642857 27.3271429 26.7642857 -6.83428571 -7.38 -6.83428571"></polygon>
                </g>
                <g id="Group-55" transform="translate(99.000000, 191.000000)">
                    <mask id="mask-32" fill="white">
                        <use xlink:href="#path-31"></use>
                    </mask>
                    <g id="Clip-54"></g>
                    <polygon id="Fill-53" fill="#352BBD" mask="url(#mask-32)" points="-7.59444444 33.0597895 32.2708333 33.0597895 32.2708333 -7.75 -7.59444444 -7.75"></polygon>
                </g>
                <polygon id="Fill-56" fill="#352BBD" points="107 215.42374 238.885025 255 245 237.907454 115.383638 192"></polygon>
                <g id="Group-129" transform="translate(68.000000, 0.000000)">
                    <path d="M76.0306829,207.862251 C75.7878748,213.73444 80.3324581,218.69108 86.1837144,218.934757 C92.0335672,219.178434 96.9753455,214.617593 97.2181537,208.745404 C97.4609619,202.873215 92.9135715,197.916574 87.0637187,197.672898 C81.2124624,197.429221 76.2734911,201.991471 76.0306829,207.862251" id="Fill-57" fill="#E6659B"></path>
                    <polygon id="Fill-59" fill="#7798FF" points="79.6656479 124.991846 24.2380118 169.046645 3.11229573 149.414462 45.2163587 93.9251634"></polygon>
                    <path d="M46.2539777,120.939487 C54.0336644,129.724529 67.4372379,130.517535 76.1909644,122.710017 C84.9446909,114.902499 85.7348702,101.450974 77.9551835,92.6659317 C70.1754968,83.880889 56.7719233,83.0878829 48.0181968,90.8954012 C39.2644703,98.7029195 38.4742911,112.154444 46.2539777,120.939487" id="Fill-61" fill="#7798FF"></path>
                    <polygon id="Fill-63" fill="#7798FF" points="103.090884 122.733258 147.318466 176.543581 171.20209 160.408795 138.111404 99.076886"></polygon>
                    <path d="M132.942958,125.608785 C123.908528,133.088115 110.54285,131.800712 103.090182,122.732554 C95.638918,113.665804 96.9217312,100.253718 105.956161,92.774389 C114.99059,85.2964683 128.354865,86.5838707 135.807533,95.6506207 C143.260201,104.717371 141.977387,118.129456 132.942958,125.608785" id="Fill-65" fill="#7798FF"></path>
                    <path d="M47.20107,100.525425 L47.4031763,127.489041 L54.3126833,205.900864 L125.246359,209.912376 L132.381832,131.028693 L134.809914,104.176352 C135.584655,95.6997787 129.121466,88.2936933 120.645635,87.9415591 L62.6692149,85.5259189 C54.1933845,85.1723762 47.1407189,92.015047 47.20107,100.525425" id="Fill-67" fill="#6285FF"></path>
                    <path d="M49.241922,201.829912 L49.9535044,216.353332 L49.9871888,217.066052 C50.366138,224.801735 56.7254669,230.878162 64.4419954,230.878162 L111.355906,230.878162 C119.073838,230.878162 125.433167,224.801735 125.812116,217.066052 L125.845801,216.353332 L126.55598,201.829912 L49.241922,201.829912 Z" id="Fill-69" fill="#352BBD"></path>
                    <path d="M120.448441,47.8489738 L111.384538,47.1968213 L113.284898,20.5909738 L122.350205,21.2431262 C129.670942,21.7699189 135.179741,28.1534067 134.654826,35.5003335 C134.129911,42.8472604 127.769178,48.3757665 120.448441,47.8489738" id="Fill-71" fill="#40327A"></path>
                    <path d="M90.4975598,59.4646116 L81.3985685,58.8096421 C75.8069626,58.4068006 71.6006265,53.533264 72.0006284,47.9216543 L72.7192284,37.8689287 L91.9417773,39.2521116 L90.4975598,59.4646116 Z" id="Fill-73" fill="#40327A"></path>
                    <polygon id="Fill-75" fill="#FF95A9" points="106.359812 87.7481671 79.9217895 85.8452341 81.9765362 57.0941854 108.415962 58.9971183"></polygon>
                    <path d="M110.555341,70.761075 L81.1474796,68.645453 L85.4211844,8.84039817 L128.577884,11.9462213 L125.289447,57.9532518 C124.74348,65.5734348 118.146956,71.3075872 110.555341,70.761075" id="Fill-77" fill="#FF95A9"></path>
                    <path d="M86.747647,5.28820976 L97.2108554,6.04177683 L94.6157551,42.35385 L72.5131923,40.7636122 L74.2732008,16.1311244 C74.7335539,9.68002683 80.3195458,4.82480122 86.747647,5.28820976" id="Fill-79" fill="#40327A"></path>
                    <path d="M82.8235579,45.1406396 L88.5906032,45.5561579 L89.0046403,39.7684811 C89.2320099,36.5725116 86.8362088,33.7948774 83.651632,33.565286 C80.4656517,33.337103 77.6993226,35.741475 77.4719531,38.938853 C77.2417765,42.1348226 79.6389811,44.9110482 82.8235579,45.1406396" id="Fill-81" fill="#FF95A9"></path>
                    <path d="M111.522925,17.3989482 L100.986733,16.6411555 C96.7579409,16.3369116 93.287047,12.8000762 93.4821356,8.5491128 C93.6800313,4.186875 97.4204003,0.871179878 101.733404,1.18246646 L112.269595,1.94025915 C116.499791,2.24450305 119.970685,5.78133841 119.775596,10.0323018 C119.576297,14.3945396 115.837331,17.7102348 111.522925,17.3989482" id="Fill-83" fill="#40327A"></path>
                    <path d="M108.218347,17.1610463 L97.6821559,16.4032537 C93.4519601,16.0990098 89.9824696,12.5621744 90.1775583,8.31121098 C90.375454,3.94897317 94.1144194,0.633278049 98.4288262,0.944564634 L108.965017,1.70235732 C113.195213,2.00660122 116.666107,5.54343659 116.471019,9.7944 C116.271719,14.1566378 112.532754,17.4723329 108.218347,17.1610463" id="Fill-85" fill="#40327A"></path>
                    <path d="M123.489859,18.2608317 L112.953668,17.5016305 C108.723472,17.1973866 105.253982,13.6619598 105.447667,9.41099634 C105.646966,5.04735 109.385932,1.73306341 113.698935,2.04294146 L124.23653,2.80214268 C128.465322,3.10638659 131.93762,6.64181341 131.742531,10.8941854 C131.541828,15.2564232 127.802863,18.5707098 123.489859,18.2608317" id="Fill-87" fill="#40327A"></path>
                    <path d="M113.170371,28.7471049 L102.63418,27.9893122 C98.403984,27.6850683 94.9344935,24.1482329 95.1295822,19.8972695 C95.3274779,15.5350317 99.0664433,12.2193366 103.38085,12.5306232 L113.917041,13.2884159 C118.147237,13.5926598 121.618131,17.1294951 121.423042,21.3804585 C121.223743,25.7426963 117.484778,29.0583915 113.170371,28.7471049" id="Fill-89" fill="#40327A"></path>
                    <path d="M73.4525652,85.9751012 C73.0006332,96.8926683 81.4483933,106.105906 92.3270423,106.559455 C103.19727,107.013004 112.376262,98.535022 112.828194,87.6160463 L73.4525652,85.9751012 Z" id="Fill-91" fill="#FF95A9"></path>
                    <path d="M93.1662043,107.640929 C98.3844751,107.640929 103.340289,105.704191 107.202763,102.13496 C111.282783,98.3643073 113.658935,93.2231488 113.887708,87.6594293 L111.769803,87.5706915 C111.562083,92.5681793 109.431546,97.1839537 105.766967,100.568667 C102.103791,103.95338 97.3669263,105.704191 92.3718145,105.497137 C88.7254811,105.345015 85.2377449,104.140716 82.2861517,102.016643 L81.0496545,103.744917 C84.3380915,106.112667 88.2230225,107.453594 92.2847965,107.622618 C92.5795348,107.635295 92.8728695,107.640929 93.1662043,107.640929" id="Fill-93" fill="#FFFFFF"></path>
                    <path d="M77.2149694,100.174559 L78.8402404,98.808278 C77.7707615,97.5265098 76.8795291,96.109522 76.187596,94.5967537 L74.2605691,95.4827232 C75.0296957,97.1687415 76.0247882,98.747711 77.2149694,100.174559" id="Fill-95" fill="#FFFFFF"></path>
                    <path d="M106.359812,87.7481671 C105.836301,95.0753744 99.4938138,100.588387 92.1927259,100.063002 C84.891638,99.5376183 79.3982782,93.1724415 79.9217895,85.8452341 C80.4453008,78.5180268 86.789191,73.0050146 94.0888754,73.5303988 C101.389963,74.0557829 106.883323,80.4209598 106.359812,87.7481671" id="Fill-97" fill="#FF95A9"></path>
                    <path d="M91.4748277,45.7636354 L91.4748277,45.7636354 C89.8818376,45.6481354 88.6832353,44.2607268 88.7983235,42.6620378 L88.8488501,41.9394585 L94.6158955,42.3535683 L94.5639654,43.0775561 C94.4502807,44.6762451 93.0664143,45.8777268 91.4748277,45.7636354" id="Fill-99" fill="#40327A"></path>
                    <path d="M122.690698,29.4327805 L112.154507,28.6735793 C107.924311,28.3707439 104.45482,24.8339085 104.649909,20.5829451 C104.847805,16.2192988 108.58677,12.9050122 112.901177,13.2148902 L123.437368,13.9740915 C127.667564,14.2783354 131.138458,17.8137622 130.943369,22.0661341 C130.74407,26.428372 127.005105,29.7426585 122.690698,29.4327805" id="Fill-101" fill="#40327A"></path>
                    <path d="M126.239346,29.6878665 L117.17404,29.035714 L119.075803,2.42986646 L128.139707,3.0820189 C135.460444,3.60881159 140.969242,9.99229939 140.444327,17.3392262 C139.919413,24.686153 133.560084,30.2146591 126.239346,29.6878665" id="Fill-103" fill="#40327A"></path>
                    <path d="M171.520548,173.573259 C174.968985,166.341832 171.923357,157.675107 164.717708,154.215741 C157.514866,150.754966 148.877631,153.811491 145.429194,161.042918 C141.982159,168.272936 145.027788,176.939662 152.232033,180.400436 C159.437682,183.859802 168.073513,180.803277 171.520548,173.573259" id="Fill-105" fill="#7798FF"></path>
                    <path d="M28.8785956,160.692192 C27.5045539,168.588448 20.0139914,173.873277 12.1444797,172.495729 C4.27637153,171.11818 -0.988215298,163.599412 0.383019393,155.703155 C1.75706112,147.806899 9.24902712,142.52207 17.1171353,143.899619 C24.9852435,145.277168 30.2512338,152.795936 28.8785956,160.692192" id="Fill-107" fill="#617CFF"></path>
                    <polygon id="Fill-109" fill="#617CFF" points="17.1105388 143.899055 99.3214621 158.294299 98.3670715 170.96972 83.4378766 171.282415 14.9421072 172.714897"></polygon>
                    <polygon id="Fill-111" fill="#7798FF" points="84.6039173 155.717523 99.3211814 158.295145 98.3667908 170.969157 83.4375959 171.28326"></polygon>
                    <polygon id="Fill-113" fill="#FF95A9" points="89.9438729 164.874419 98.8183018 167.440773 96.5109222 179.938718 92.2259892 179.564047 87.3094743 179.127401"></polygon>
                    <path d="M121.084374,159.465216 C119.652788,154.988887 114.878028,152.523948 110.416253,153.959246 C105.957284,155.394545 103.501131,160.187795 104.92991,164.664124 C106.361496,169.141862 111.136256,171.606801 115.598032,170.171502 C120.059808,168.734795 122.51596,163.941545 121.084374,159.465216" id="Fill-115" fill="#FF95A9"></path>
                    <path d="M104.292855,162.634423 C105.366544,165.992374 103.523728,169.58696 100.177747,170.663082 C96.8331694,171.740612 93.2513977,169.891204 92.1777083,166.534661 C91.1054224,163.17671 92.9468348,159.582124 96.2928159,158.504594 C99.6387969,157.428472 103.220569,159.276472 104.292855,162.634423" id="Fill-117" fill="#FF95A9"></path>
                    <polygon id="Fill-119" fill="#FF95A9" points="113.226652 170.576738 98.4013173 170.968312 96.2932369 158.504171 110.416814 153.958824"></polygon>
                    <polygon id="Fill-121" fill="#40327A" points="72.1778924 178.875273 72.3631565 176.755425 24.9187168 172.605876 24.7348563 174.725724"></polygon>
                    <polygon id="Fill-123" fill="#40327A" points="79.9794739 179.558131 80.164738 177.438284 76.282614 177.098826 76.0987534 179.218674"></polygon>
                    <path d="M107.020447,55.2547774 C106.78606,58.4789177 109.200106,61.2819055 112.412753,61.5171311 C115.6254,61.7509482 118.418396,59.3282652 118.652784,56.1055335 L107.020447,55.2547774 Z" id="Fill-125" fill="#FFFFFF"></path>
                    <polygon id="Fill-127" fill="#FFFFFF" points="90.1878039 171.241004 91.279739 156.785193 89.1660446 156.62462 88.072706 171.080431"></polygon>
                </g>
                <g id="Group-132" transform="translate(238.000000, 238.000000)">
                    <mask id="mask-34" fill="white">
                        <use xlink:href="#path-33"></use>
                    </mask>
                    <g id="Clip-131"></g>
                    <polygon id="Fill-130" fill="#FF95A9" mask="url(#mask-34)" points="-7.12506787 38.6309565 25.8921448 38.6309565 25.8921448 -7.52278261 -7.12506787 -7.52278261"></polygon>
                </g>
                <g id="Group-135" transform="translate(102.000000, 194.000000)">
                    <mask id="mask-36" fill="white">
                        <use xlink:href="#path-35"></use>
                    </mask>
                    <g id="Clip-134"></g>
                    <polygon id="Fill-133" fill="#352BBD" mask="url(#mask-36)" points="-7.5428902 47.4664957 46.2925045 47.4664957 46.2925045 -7.30389744 -7.5428902 -7.30389744"></polygon>
                </g>
                <g id="Group-138" transform="translate(18.000000, 167.000000)">
                    <mask id="mask-38" fill="white">
                        <use xlink:href="#path-37"></use>
                    </mask>
                    <g id="Clip-137"></g>
                    <polygon id="Fill-136" fill="#B7DDFF" mask="url(#mask-38)" points="-7.33530864 216.429385 35.3809383 216.429385 35.3809383 -6.73318919 -7.33530864 -6.73318919"></polygon>
                </g>
                <g id="Group-141" transform="translate(354.000000, 167.000000)">
                    <mask id="mask-40" fill="white">
                        <use xlink:href="#path-39"></use>
                    </mask>
                    <g id="Clip-140"></g>
                    <polygon id="Fill-139" fill="#B7DDFF" mask="url(#mask-40)" points="-6.68242857 216.429385 35.9793333 216.429385 35.9793333 -6.73318919 -6.68242857 -6.73318919"></polygon>
                </g>
                <g id="Group-144" transform="translate(20.000000, 167.000000)">
                    <mask id="mask-42" fill="white">
                        <use xlink:href="#path-41"></use>
                    </mask>
                    <g id="Clip-143"></g>
                    <polygon id="Fill-142" fill="#1C65E4" mask="url(#mask-42)" points="-4.93982101 17.512 366.131307 17.512 366.131307 -7.16266667 -4.93982101 -7.16266667"></polygon>
                </g>
                <g id="Group-147" transform="translate(214.000000, 94.000000)">
                    <mask id="mask-44" fill="white">
                        <use xlink:href="#path-43"></use>
                    </mask>
                    <g id="Clip-146"></g>
                    <polygon id="Fill-145" fill="#7798FF" mask="url(#mask-44)" points="-7.53723373 82.3174528 115.374941 82.3174528 115.374941 -7.65141509 -7.53723373 -7.65141509"></polygon>
                </g>
                <g id="Group-150" transform="translate(259.000000, 123.000000)">
                    <mask id="mask-46" fill="white">
                        <use xlink:href="#path-45"></use>
                    </mask>
                    <g id="Clip-149"></g>
                    <polygon id="Fill-148" fill="#FFFFFF" mask="url(#mask-46)" points="-6.95583333 23.6072727 23.7844167 23.6072727 23.7844167 -7.952 -6.95583333 -7.952"></polygon>
                </g>
                <g id="Group-153" transform="translate(214.000000, 152.000000)">
                    <mask id="mask-48" fill="white">
                        <use xlink:href="#path-47"></use>
                    </mask>
                    <g id="Clip-152"></g>
                    <polygon id="Fill-151" fill="#000000" opacity="0.131835938" mask="url(#mask-48)" points="-7.52916754 24.3241667 112.489717 24.3241667 112.489717 -7.57633333 -7.52916754 -7.57633333"></polygon>
                </g>
                <g id="Group-156" transform="translate(130.000000, 221.000000)">
                    <mask id="mask-50" fill="white">
                        <use xlink:href="#path-49"></use>
                    </mask>
                    <g id="Clip-155"></g>
                    <polygon id="Fill-154" fill="#7760DB" mask="url(#mask-50)" points="-7.30971429 22.998 46.1495357 22.998 46.1495357 -7.845 -7.30971429 -7.845"></polygon>
                </g>
                <g id="Group-159" transform="translate(51.000000, 87.000000)">
                    <mask id="mask-52" fill="white">
                        <use xlink:href="#path-51"></use>
                    </mask>
                    <g id="Clip-158"></g>
                    <polygon id="Fill-157" fill="#FFFFFF" mask="url(#mask-52)" points="-7.09894737 51.1705806 27.6042105 51.1705806 27.6042105 -7.58219355 -7.09894737 -7.58219355"></polygon>
                </g>
                <g id="Group-162" transform="translate(0.000000, 376.000000)">
                    <mask id="mask-54" fill="white">
                        <use xlink:href="#path-53"></use>
                    </mask>
                    <g id="Clip-161"></g>
                    <polygon id="Fill-160" fill="#B7DDFF" mask="url(#mask-54)" points="-3.32435035 10.9125 433.826312 10.9125 433.826312 -8.352 -3.32435035 -8.352"></polygon>
                </g>
                <g id="Group-165" transform="translate(54.000000, 135.000000)">
                    <mask id="mask-56" fill="white">
                        <use xlink:href="#path-55"></use>
                    </mask>
                    <g id="Clip-164"></g>
                    <polygon id="Fill-163" fill="#FF809F" mask="url(#mask-56)" points="-7.5782 41.531 27.622 41.531 27.622 -7.49133333 -7.5782 -7.49133333"></polygon>
                </g>
                <g id="Group-168" transform="translate(213.000000, 94.000000)">
                    <mask id="mask-58" fill="white">
                        <use xlink:href="#path-57"></use>
                    </mask>
                    <g id="Clip-167"></g>
                    <polygon id="Fill-166" fill="#FFFFFF" mask="url(#mask-58)" points="-7.5208 82.3683962 13.37 82.3683962 13.37 -7.70235849 -7.5208 -7.70235849"></polygon>
                </g>
                <g id="Group-171" transform="translate(20.000000, 177.000000)">
                    <mask id="mask-60" fill="white">
                        <use xlink:href="#path-59"></use>
                    </mask>
                    <g id="Clip-170"></g>
                    <polygon id="Fill-169" fill="#352BBD" mask="url(#mask-60)" points="-3.98792727 7.9625 81.4164 7.9625 81.4164 -5.749 -3.98792727 -5.749"></polygon>
                </g>
                <g id="Group-174" transform="translate(104.000000, 177.000000)">
                    <mask id="mask-62" fill="white">
                        <use xlink:href="#path-61"></use>
                    </mask>
                    <g id="Clip-173"></g>
                    <polygon id="Fill-172" fill="#F8F7FF" mask="url(#mask-62)" points="-5.39234043 9.137 204.097277 9.137 204.097277 -7.0105 -5.39234043 -7.0105"></polygon>
                </g>
                <g id="Group-177" transform="translate(104.000000, 178.000000)">
                    <mask id="mask-64" fill="white">
                        <use xlink:href="#path-63"></use>
                    </mask>
                    <g id="Clip-176"></g>
                    <polygon id="Fill-175" fill="#352BBD" mask="url(#mask-64)" points="-5.39234043 10.144 204.097277 10.144 204.097277 -6.22533333 -5.39234043 -6.22533333"></polygon>
                </g>
                <g id="Group-180" transform="translate(329.000000, 177.000000)">
                    <mask id="mask-66" fill="white">
                        <use xlink:href="#path-65"></use>
                    </mask>
                    <g id="Clip-179"></g>
                    <polygon id="Fill-178" fill="#F8F7FF" mask="url(#mask-66)" points="-6.32291892 9.137 57.4037838 9.137 57.4037838 -7.0105 -6.32291892 -7.0105"></polygon>
                </g>
                <g id="Group-183" transform="translate(329.000000, 177.000000)">
                    <mask id="mask-68" fill="white">
                        <use xlink:href="#path-67"></use>
                    </mask>
                    <g id="Clip-182"></g>
                    <polygon id="Fill-181" fill="#352BBD" mask="url(#mask-68)" points="-6.32151351 10.0186667 57.4037838 10.0186667 57.4037838 -6.35066667 -6.32151351 -6.35066667"></polygon>
                </g>
                <g id="Group-186" transform="translate(312.000000, 177.000000)">
                    <mask id="mask-70" fill="white">
                        <use xlink:href="#path-69"></use>
                    </mask>
                    <g id="Clip-185"></g>
                    <polygon id="Fill-184" fill="#F8F7FF" mask="url(#mask-70)" points="-4.788 9.137 14.283 9.137 14.283 -7.0105 -4.788 -7.0105"></polygon>
                </g>
                <g id="Group-189" transform="translate(312.000000, 177.000000)">
                    <mask id="mask-72" fill="white">
                        <use xlink:href="#path-71"></use>
                    </mask>
                    <g id="Clip-188"></g>
                    <polygon id="Fill-187" fill="#352BBD" mask="url(#mask-72)" points="-4.788 10.0186667 14.2842857 10.0186667 14.2842857 -6.35066667 -4.788 -6.35066667"></polygon>
                </g>
                <g id="Group-192" transform="translate(370.000000, 376.000000)">
                    <mask id="mask-74" fill="white">
                        <use xlink:href="#path-73"></use>
                    </mask>
                    <g id="Clip-191"></g>
                    <polygon id="Fill-190" fill="#F8F7FF" mask="url(#mask-74)" points="-7.66890756 9.048 25.6229244 9.048 25.6229244 -7.359 -7.66890756 -7.359"></polygon>
                </g>
            </g>
        </g>
    </g>
</svg>